<?xml version="1.0" encoding="UTF-8" standalone="no"?><!DOCTYPE svg PUBLIC "-//W3C//DTD SVG 1.1//EN" "http://www.w3.org/Graphics/SVG/1.1/DTD/svg11.dtd"><svg width="100%" height="100%" viewBox="0 0 128 128" version="1.1" xmlns="http://www.w3.org/2000/svg" xmlns:xlink="http://www.w3.org/1999/xlink" xml:space="preserve" xmlns:serif="http://www.serif.com/" style="fill-rule:evenodd;clip-rule:evenodd;stroke-linejoin:round;stroke-miterlimit:2;"><g><g><path d="M100.537,0c-0.993,-0.01 -1.807,0.792 -1.82,1.785l-0.064,7.22c-0.006,0.99 0.795,1.804 1.788,1.814c0.999,0.003 1.807,-0.792 1.814,-1.788l0.064,-7.217c0.01,-0.986 -0.786,-1.801 -1.782,-1.814Z" style="fill:#faa61a;fill-rule:nonzero;"/><path d="M114.839,14.548l-7.217,-0.07c-0.993,-0.003 -1.814,0.802 -1.814,1.791c-0.006,0.999 0.789,1.811 1.779,1.82l7.223,0.06c0.993,0.01 1.807,-0.789 1.814,-1.788c0.01,-0.996 -0.792,-1.807 -1.785,-1.814Z" style="fill:#faa61a;fill-rule:nonzero;"/><path d="M106.808,12.451l7.713,-7.579c0.703,-0.694 0.716,-1.842 0.019,-2.552c-0.697,-0.71 -1.839,-0.722 -2.549,-0.025l-7.719,7.592c-0.71,0.697 -0.716,1.839 -0.025,2.549c0.71,0.71 1.846,0.722 2.561,0.016Z" style="fill:#faa61a;fill-rule:nonzero;"/><path d="M94.061,12.346c0.697,0.716 1.833,0.725 2.542,0.022c0.716,-0.703 0.722,-1.833 0.019,-2.552l-7.583,-7.716c-0.697,-0.703 -1.839,-0.716 -2.549,-0.016c-0.716,0.694 -0.722,1.842 -0.019,2.552l7.589,7.71Z" style="fill:#faa61a;fill-rule:nonzero;"/><path d="M106.741,20.104c-0.703,-0.71 -1.839,-0.716 -2.555,-0.022c-0.71,0.7 -0.722,1.836 -0.019,2.552l7.589,7.713c0.697,0.713 1.833,0.719 2.549,0.025c0.71,-0.706 0.716,-1.839 0.019,-2.555l-7.583,-7.713Z" style="fill:#faa61a;fill-rule:nonzero;"/></g><path d="M92.913,112.014c-4.996,-3.647 -12.546,-5.794 -22.646,-6.434l-25.494,-1.448c-5.393,-0.216 -8.092,-1.667 -8.092,-4.347c0.118,-1.349 1.244,-1.89 1.912,-2.097l0.172,0.054c4.903,1.515 10.236,2.275 15.989,2.275c12.505,0 22.646,-3.484 30.426,-10.44c7.78,-6.962 11.671,-16.374 11.671,-28.227c0,-7.742 -1.826,-14.57 -5.419,-20.524l6.513,-6.513l-6.469,-6.469l6.704,-6.708l-2.568,-2.568l-6.704,6.708l-6.431,-6.431l-7.818,7.818c-5.346,-2.514 -12.222,-3.777 -20.638,-3.777c-13.355,0 -23.801,3.688 -31.342,11.067c-7.541,7.379 -11.305,16.988 -11.305,28.841c0,13.374 4.655,23.095 13.972,29.156c0,0 0.255,0.156 0.608,0.363c-1.826,0.869 -5.756,2.784 -9.174,6.673c-2.237,2.682 -3.357,5.953 -3.357,9.813c0,7.083 4.028,12.877 13.094,14.166c7.309,0.932 10.414,-1.76 39.65,-1.559c29.236,0.2 33.372,6.593 33.372,6.593c0.003,-8.158 -1.639,-12.336 -6.628,-15.986Zm-50.469,-63.177c3.182,-2.689 7.414,-4.035 12.683,-4.035c10.908,0 16.358,5.444 16.358,16.339c0,5.237 -1.527,9.304 -4.592,12.2c-3.064,2.892 -7.108,4.34 -12.136,4.34c-11.391,0 -17.09,-5.511 -17.09,-16.54c-0.003,-5.514 1.588,-9.619 4.776,-12.305Z" style="fill-rule:nonzero;"/></g></svg>
